<svg width="18" height="24" viewBox="0 0 18 24" fill="none" xmlns="http://www.w3.org/2000/svg">
<path d="M14.7457 3.07943C13.9554 2.30548 13.016 1.70028 11.9846 1.3006C10.9531 0.900915 9.85121 0.715096 8.74574 0.754429C6.67304 0.825166 4.70235 1.67115 3.22343 3.12508C1.7445 4.579 0.865047 6.53498 0.758989 8.60618C0.705004 9.68684 0.865491 10.7675 1.23119 11.7858C1.5969 12.8042 2.16058 13.74 2.88974 14.5394C5.08067 16.8641 6.8646 19.541 8.16674 22.4579L8.31074 22.7954C8.36859 22.9303 8.46472 23.0452 8.58724 23.1259C8.70975 23.2067 8.85326 23.2497 8.99999 23.2497C9.14672 23.2497 9.29023 23.2067 9.41274 23.1259C9.53525 23.0452 9.63139 22.9303 9.68924 22.7954L10.0095 22.0454C11.2466 19.2916 12.9522 16.7732 15.0502 14.6024C16.5155 13.0225 17.3041 10.9318 17.2471 8.77774C17.1902 6.6237 16.2924 4.57753 14.7457 3.07718V3.07943ZM8.99999 11.9999C8.40665 11.9999 7.82663 11.824 7.33328 11.4943C6.83993 11.1647 6.45541 10.6962 6.22835 10.148C6.00129 9.5998 5.94188 8.9966 6.05763 8.41466C6.17339 7.83271 6.45911 7.29817 6.87867 6.87861C7.29823 6.45905 7.83278 6.17333 8.41472 6.05757C8.99666 5.94182 9.59986 6.00123 10.148 6.22829C10.6962 6.45535 11.1648 6.83987 11.4944 7.33322C11.824 7.82657 12 8.40658 12 8.99993C12 9.79558 11.6839 10.5586 11.1213 11.1212C10.5587 11.6839 9.79564 11.9999 8.99999 11.9999Z" fill="#C49A6C"/>
</svg>
