<svg width="38" height="25" viewBox="0 0 38 25" fill="none" xmlns="http://www.w3.org/2000/svg">
<path d="M30.3203 0.1875C29.3828 2.53125 27.1171 3.92969 22.5312 3.61719C21.4609 3.47656 20.375 3.29687 19.2812 3.09375C9.97651 0.1875 0.824951 0.187499 0.824951 6C3.44058 3.09375 10.0234 3.59375 18.4062 5.6875C27.5312 7.96875 37.2968 8.90625 37.2968 1.64062C35.8593 3.14844 33.125 3.875 29.75 4.01562C30.5312 3.20312 30.7265 1.92969 30.3203 0.1875ZM10.4843 6.64844C4.95698 6.625 0.824951 7.90625 0.824951 11.8125C3.44058 8.90625 10.0234 9.09375 18.4062 11.1875C27.5312 13.4688 37.2968 14.7188 37.2968 7.45312C34.5312 10.3594 27.125 10.5469 19.2812 8.07812C16.3359 7.14844 13.1875 6.65625 10.4843 6.64844ZM8.61714 12.0859C4.05151 12.0703 0.824951 13.3047 0.824951 17.625C3.44058 14.7188 10.3828 14.1641 18.4062 16.1719C27.8593 18.5312 37.2968 19.0781 37.2968 13.2656C34.5312 16.1719 26.9765 15.0313 19.2812 13.5781C15.5 12.9922 11.7421 12.0859 8.61714 12.0859ZM8.61714 17.8906C4.05151 17.8828 0.824951 19.125 0.824951 23.4375C2.31167 21.7891 5.16245 21.0703 8.83589 21.0312C8.02339 21.8437 7.82808 23.1328 8.23433 24.8906C9.32026 22.1719 12.2968 20.8438 18.414 21.9844C27.9921 23.7656 37.2968 24.8906 37.2968 19.0781C34.5312 21.9844 26.9765 20.5312 19.2812 19.0781C15.5 18.4844 11.7421 17.8984 8.61714 17.8906Z" fill="#C49A6C"/>
</svg>
